<svg width="25" height="24" viewBox="0 0 25 24" fill="none" xmlns="http://www.w3.org/2000/svg">
<path d="M15.8468 17H9.87796M15.8468 17H20.8208L19.4231 15.595C19.2354 15.4063 19.0865 15.1822 18.985 14.9357C18.8834 14.6891 18.8312 14.4249 18.8312 14.158V11C18.8314 9.75894 18.4488 8.54834 17.7362 7.53489C17.0235 6.52144 16.0159 5.75496 14.852 5.341V5C14.852 4.46957 14.6424 3.96086 14.2692 3.58579C13.8961 3.21071 13.39 3 12.8624 3C12.3347 3 11.8286 3.21071 11.4555 3.58579C11.0824 3.96086 10.8728 4.46957 10.8728 5V5.341C8.55487 6.165 6.89354 8.388 6.89354 11V14.159C6.89354 14.697 6.68065 15.214 6.30163 15.595L4.90393 17H9.87796H15.8468ZM15.8468 17V18C15.8468 18.7956 15.5324 19.5587 14.9727 20.1213C14.413 20.6839 13.6539 21 12.8624 21C12.0709 21 11.3118 20.6839 10.7521 20.1213C10.1924 19.5587 9.87796 18.7956 9.87796 18V17H15.8468Z" stroke="#8B8C8C" stroke-width="2" stroke-linecap="round" stroke-linejoin="round"/>
<g clip-path="url(#clip0_19_1309)">
<circle cx="18.8572" cy="8" r="5" fill="#FF0000"/>
</g>
<path d="M18.661 10V6.676L17.971 6.838V6.25L18.985 5.8H19.459V10H18.661Z" fill="white"/>
<defs>
<clipPath id="clip0_19_1309">
<rect width="9.94805" height="10" fill="white" transform="translate(13.8572 3)"/>
</clipPath>
</defs>
</svg>
