<svg width="25" height="24" viewBox="0 0 25 24" fill="none" xmlns="http://www.w3.org/2000/svg">
<path d="M10.9623 4.317C11.3861 2.561 13.8711 2.561 14.2949 4.317C14.3585 4.5808 14.4831 4.82578 14.6587 5.032C14.8343 5.23822 15.0558 5.39985 15.3053 5.50375C15.5547 5.60764 15.8251 5.65085 16.0943 5.62987C16.3635 5.60889 16.624 5.5243 16.8545 5.383C18.3895 4.443 20.1473 6.209 19.2122 7.753C19.0719 7.98466 18.9878 8.24634 18.967 8.51677C18.9462 8.78721 18.9891 9.05877 19.0924 9.30938C19.1956 9.55999 19.3562 9.78258 19.5611 9.95905C19.766 10.1355 20.0095 10.2609 20.2717 10.325C22.0186 10.751 22.0186 13.249 20.2717 13.675C20.0093 13.7389 19.7656 13.8642 19.5604 14.0407C19.3553 14.2172 19.1945 14.4399 19.0911 14.6907C18.9878 14.9414 18.9448 15.2132 18.9656 15.4838C18.9865 15.7544 19.0707 16.0162 19.2112 16.248C20.1463 17.791 18.3895 19.558 16.8535 18.618C16.6231 18.4769 16.3628 18.3924 16.0937 18.3715C15.8247 18.3506 15.5546 18.3938 15.3052 18.4975C15.0559 18.6013 14.8345 18.7627 14.6589 18.9687C14.4834 19.1747 14.3587 19.4194 14.2949 19.683C13.8711 21.439 11.3861 21.439 10.9623 19.683C10.8987 19.4192 10.7741 19.1742 10.5985 18.968C10.4229 18.7618 10.2014 18.6001 9.95193 18.4963C9.70247 18.3924 9.43213 18.3491 9.16291 18.3701C8.8937 18.3911 8.63322 18.4757 8.40267 18.617C6.86768 19.557 5.10986 17.791 6.04498 16.247C6.18535 16.0153 6.26936 15.7537 6.29018 15.4832C6.31101 15.2128 6.26806 14.9412 6.16483 14.6906C6.06159 14.44 5.90099 14.2174 5.69607 14.0409C5.49116 13.8645 5.24771 13.7391 4.98551 13.675C3.23863 13.249 3.23863 10.751 4.98551 10.325C5.24794 10.2611 5.49165 10.1358 5.6968 9.95929C5.90195 9.7828 6.06274 9.56011 6.16609 9.30935C6.26945 9.05859 6.31243 8.78683 6.29156 8.51621C6.27069 8.24559 6.18654 7.98375 6.04597 7.752C5.11086 6.209 6.86768 4.442 8.40366 5.382C9.39449 5.99 10.6877 5.452 10.9623 4.317Z" stroke="#8B8C8C" stroke-width="2" stroke-linecap="round" stroke-linejoin="round"/>
<path d="M15.613 12C15.613 12.7956 15.2986 13.5587 14.7389 14.1213C14.1792 14.6839 13.4201 15 12.6286 15C11.8371 15 11.078 14.6839 10.5183 14.1213C9.95859 13.5587 9.64417 12.7956 9.64417 12C9.64417 11.2044 9.95859 10.4413 10.5183 9.87868C11.078 9.31607 11.8371 9 12.6286 9C13.4201 9 14.1792 9.31607 14.7389 9.87868C15.2986 10.4413 15.613 11.2044 15.613 12Z" stroke="#8B8C8C" stroke-width="2" stroke-linecap="round" stroke-linejoin="round"/>
</svg>
